HIERARCHY
ROOT Hips
{
  OFFSET 0 0 0
  CHANNELS 6 Xposition Yposition Zposition Zrotation Yrotation Xrotation
  JOINT LeftThigh
  {
    OFFSET 8.409438 0 -5.917753
    CHANNELS 3 Zrotation Yrotation Xrotation
    JOINT LeftLeg
    {
      OFFSET 0 0 -42.358652
      CHANNELS 3 Zrotation Yrotation Xrotation
      JOINT LeftFoot
      {
        OFFSET 0 0 -39.357303
        CHANNELS 3 Zrotation Yrotation Xrotation
      }
    }
  }
  JOINT RightThigh
  {
    OFFSET -8.409438 0 -5.917753
    CHANNELS 3 Zrotation Yrotation Xrotation
    JOINT RightLeg
    {
      OFFSET 0 0 -42.358652
      CHANNELS 3 Zrotation Yrotation Xrotation
      JOINT RightFoot
      {
        OFFSET 0 0 -39.357303
        CHANNELS 3 Zrotation Yrotation Xrotation
      }
    }
  }
  JOINT SpineLow
  {
    OFFSET 0 0 4.719101
    CHANNELS 3 Zrotation Yrotation Xrotation
    JOINT SpineMid
    {
      OFFSET 0 0 12.899191
      CHANNELS 3 Zrotation Yrotation Xrotation
      JOINT Chest
      {
        OFFSET 0 0 12.899191
        CHANNELS 3 Zrotation Yrotation Xrotation
        JOINT LeftShoulder
        {
          OFFSET 7.550562 1.41573 9.438202
          CHANNELS 3 Zrotation Yrotation Xrotation
          JOINT LeftArm
          {
            OFFSET 9.155056 0 4.247191
            CHANNELS 3 Zrotation Yrotation Xrotation
            JOINT LeftForearm
            {
              OFFSET 0 0 25.771955
              CHANNELS 3 Zrotation Yrotation Xrotation
              JOINT LeftHand
              {
                OFFSET 0 0 25.197169
                CHANNELS 3 Zrotation Yrotation Xrotation
              }
            }
          }
        }
        JOINT RightShoulder
        {
          OFFSET -7.550562 1.41573 9.438202
          CHANNELS 3 Zrotation Yrotation Xrotation
          JOINT RightArm
          {
            OFFSET -9.155056 0 4.247191
            CHANNELS 3 Zrotation Yrotation Xrotation
            JOINT RightForearm
            {
              OFFSET 0 0 -25.771955
              CHANNELS 3 Zrotation Yrotation Xrotation
              JOINT RightHand
              {
                OFFSET 0 0 -25.197169
                CHANNELS 3 Zrotation Yrotation Xrotation
              }
            }
          }
        }
        JOINT Neck
        {
          OFFSET 0 0 15.101124
          CHANNELS 3 Zrotation Yrotation Xrotation
          JOINT Head
          {
            OFFSET 0 0 11.325843
            CHANNELS 3 Zrotation Yrotation Xrotation
            End Site
            {
              OFFSET 0 0 14.157303
            }
          }
        }
      }
    }
  }
}
MOTION
Frames: 10
Frame Time: 0.0
0.0  89.887642  0.0  -91.322818  38.527449  -171.074384  18.234035  -61.426067  -35.46635  -12.962136  15.184256  24.040889  6.129711  2.754574  9.563475  -42.618654  18.821841  -51.946323  -2.113731  -1.393681  15.906831  5.579309  1.901307  -1.383831  -0.742536  -3.374854  -1.746122  -1.794355  -9.272253  -4.696624  -1.794355  -9.272253  -4.696624  -15.49768  23.903817  14.521304  138.25756  56.851702  -138.552268  -18.22013  -22.949274  77.026197  73.245033  -4.487071  10.723348  -27.24725  16.225564  16.267088  71.341174  48.186835  32.912508  -30.778728  -50.978702  -53.869103  63.723402  5.46776  -23.485022  -59.998806  8.644017  12.8132  -45.117138  5.283562  10.573238  
0.0  89.887642  0.0  -88.572082  37.74409  -169.831941  15.319361  -61.579903  -30.659846  -10.653882  13.466292  24.701991  5.31846  2.651492  9.550391  -43.063066  15.919054  -52.381934  -1.881115  -1.745268  16.787853  6.038155  1.827427  -1.541006  -0.231832  -3.18699  -1.824551  -0.393843  -8.723084  -4.983229  -0.393843  -8.723085  -4.983229  -16.43841  23.431865  15.652072  134.952219  55.601203  -140.695619  -20.589107  -21.241179  76.703104  75.46418  -4.681932  9.714154  -28.310167  16.061044  17.451548  73.562797  48.131352  34.346272  -32.832699  -50.275869  -51.145886  63.450908  4.543306  -22.42213  -60.568774  9.960147  13.940202  -45.565712  6.159531  11.566783  
0.0  89.887642  0.0  -86.213499  36.97793  -169.100453  16.72434  -61.586283  -29.651067  -10.927095  13.062818  24.801086  4.861113  2.598649  9.487407  -40.320066  15.390246  -51.377792  -3.024464  -1.237873  16.934049  6.077115  1.755934  -1.366649  0.070205  -3.045003  -1.427555  0.374158  -8.315673  -3.930128  0.374158  -8.315673  -3.930128  -16.616483  22.137456  14.269184  132.92165  54.745103  -141.064892  -23.295616  -18.975631  76.925453  78.057756  -4.155085  13.87084  -28.088853  14.780789  16.747202  75.006639  47.826772  35.732328  -34.206638  -48.826735  -49.93617  62.766543  3.171638  -20.317853  -60.535249  9.424307  14.707837  -45.555939  5.675968  12.094854  
0.0  89.887642  0.0  -84.019089  36.356518  -168.571507  21.282317  -61.901223  -31.57063  -12.934336  14.056529  24.542957  4.859041  2.745621  9.348738  -36.071252  17.019535  -50.454922  -5.527969  -0.918906  17.719379  6.281125  1.799631  -1.4396  0.240076  -2.929303  -1.066963  0.789394  -7.99441  -2.958942  0.789394  -7.99441  -2.958942  -15.745653  21.256397  13.621604  132.51281  54.600972  -140.222403  -22.566567  -19.505119  76.780622  78.046544  -3.733312  19.725718  -27.162534  14.022418  16.386926  76.005498  47.181931  36.685026  -34.994056  -47.099305  -49.765245  61.755584  1.251161  -17.315613  -60.281235  8.898717  15.196962  -45.373821  5.233342  12.408895  
0.0  89.887642  0.0  -82.118626  36.066521  -167.864759  25.74969  -62.277124  -33.719544  -14.580742  15.492826  24.056285  4.892561  2.924723  9.119208  -32.065919  19.156449  -49.803723  -7.662151  -0.90031  18.549831  6.657845  1.756153  -1.549053  0.381023  -2.852841  -0.952987  1.159101  -7.781233  -2.661307  1.159101  -7.781233  -2.661306  -14.76541  21.320291  14.204865  134.291559  55.467522  -138.589686  -20.308789  -19.846144  76.611366  77.945216  -3.18575  25.233553  -26.411833  14.191111  16.646961  76.725374  46.493735  37.128108  -35.499559  -45.60032  -49.746132  60.857209  -1.016412  -14.296305  -60.218483  8.904497  15.313896  -45.329103  5.227537  12.496758  
0.0  89.887642  0.0  -80.820021  36.046459  -167.166249  28.394649  -62.327415  -34.99868  -15.203558  16.617191  23.898819  4.932689  2.990999  8.883106  -28.712195  21.434855  -49.368014  -9.427755  -1.081481  19.272761  6.835761  1.612346  -1.505939  0.48084  -2.818662  -0.988198  1.435657  -7.682937  -2.7688  1.435656  -7.682937  -2.768799  -14.481904  21.937926  14.979054  136.423644  56.689375  -137.002315  -18.035887  -19.597131  76.633199  78.674359  -2.399282  29.006844  -26.470038  14.904969  16.943819  77.398149  46.2554  37.289664  -35.522235  -44.757945  -49.62786  60.423594  -3.150929  -11.990428  -60.325651  9.109353  15.155285  -45.407046  5.396565  12.398689  
0.0  89.887642  0.0  -80.644296  36.086976  -167.029539  29.443678  -62.415358  -36.217027  -14.992574  17.487338  24.390382  4.756136  3.023151  8.72527  -25.767129  24.148595  -48.549927  -12.106208  -1.267211  20.182561  6.428182  1.568228  -1.4187  0.467538  -2.770576  -0.970059  1.394874  -7.552507  -2.71613  1.394874  -7.552508  -2.71613  -14.791171  22.059952  14.753344  137.437045  57.858845  -136.073303  -15.977908  -18.945558  76.019467  79.322454  -2.065814  30.52688  -26.536177  14.943302  16.866543  77.139085  46.368775  37.225586  -34.852775  -44.541966  -50.122127  60.328526  -4.991584  -10.30881  -60.40833  8.852596  15.085729  -45.466696  5.20644  12.322709  
0.0  89.887642  0.0  -81.17074  36.218159  -166.949489  29.791735  -62.588145  -37.8218  -14.344093  18.409611  25.234648  4.624149  3.056981  8.638127  -23.153538  26.764645  -47.118301  -15.59426  -1.361999  20.901043  5.660147  1.549075  -1.416728  0.337974  -2.749165  -0.951255  1.036284  -7.499693  -2.649168  1.036284  -7.499693  -2.649167  -15.138033  22.197165  13.997763  137.084903  59.32758  -136.197152  -14.507887  -18.284772  75.331669  79.367321  -2.158723  30.086207  -26.284326  14.889374  16.74112  76.185223  46.698803  36.722369  -34.092903  -44.518888  -50.930263  60.324139  -6.245746  -9.156885  -60.304513  8.355901  14.915293  -45.383619  4.848413  12.143237  
0.0  89.887642  0.0  -81.426403  36.358252  -166.740065  29.574423  -62.872764  -38.706313  -13.674221  19.291733  25.973964  4.713628  3.124922  8.611344  -20.439579  28.593976  -45.263987  -18.883715  -1.005185  21.39038  4.851189  1.492438  -1.329243  0.201065  -2.742536  -0.908113  0.655441  -7.487578  -2.515041  0.65544  -7.487578  -2.515041  -15.518611  22.27348  13.092963  134.350788  60.992315  -138.160689  -13.708793  -18.278114  74.210937  79.051746  -2.955384  28.211858  -25.893906  14.862892  16.746764  75.07758  46.967589  35.950075  -33.531358  -44.236739  -52.006  60.244013  -6.856881  -8.27072  -60.052497  7.848013  14.716146  -45.188613  4.488165  11.938344  
0.0  89.887642  0.0  -81.274512  36.631968  -166.346054  29.432925  -62.578985  -39.036177  -13.78613  19.786616  26.335702  4.906329  3.207265  8.631527  -19.044061  29.019818  -44.951314  -20.988818  -1.875653  22.033571  3.759586  3.10058  -0.237303  0.07452  -2.773649  -0.887542  0.307067  -7.577555  -2.444477  0.307067  -7.577554  -2.444477  -15.781909  22.664546  12.375507  128.849854  62.324713  -142.317955  -13.272608  -19.46605  72.800232  78.458526  -4.210993  25.29567  -25.256719  15.088685  17.057803  74.039032  47.108244  35.168409  -33.34384  -43.466738  -53.278481  60.015169  -6.942246  -7.467827  -59.778892  7.54777  14.319696  -44.975096  4.305681  11.60404  
